<mxfile host="drawio-plugin" modified="2023-11-16T16:32:04.472Z" agent="5.0 (Windows NT 10.0; Win64; x64) AppleWebKit/537.36 (KHTML, like Gecko) Chrome/111.0.0.0 Safari/537.36" etag="CDDOnCfSjGP4xdxi5hrh" version="20.5.3" type="embed"><diagram id="23iRSUPoRavnBvh4doch" name="Page-1"><mxGraphModel dx="620" dy="796" grid="1" gridSize="10" guides="1" tooltips="1" connect="1" arrows="1" fold="1" page="1" pageScale="1" pageWidth="827" pageHeight="1169" math="0" shadow="0"><root><mxCell id="0"/><mxCell id="1" parent="0"/><mxCell id="28" style="edgeStyle=none;rounded=0;orthogonalLoop=1;jettySize=auto;html=1;entryX=0.002;entryY=0.081;entryDx=0;entryDy=0;entryPerimeter=0;startArrow=none;startFill=0;endArrow=open;endFill=0;" edge="1" parent="1" source="2" target="3"><mxGeometry relative="1" as="geometry"/></mxCell><mxCell id="2" value="&lt;b&gt;ImgConverter&lt;/b&gt;" style="rounded=0;whiteSpace=wrap;html=1;" vertex="1" parent="1"><mxGeometry x="120" y="200" width="120" height="30" as="geometry"/></mxCell><mxCell id="3" value="&lt;b&gt;ImgConvertFacade&lt;/b&gt;" style="swimlane;fontStyle=0;childLayout=stackLayout;horizontal=1;startSize=30;horizontalStack=0;resizeParent=1;resizeParentMax=0;resizeLast=0;collapsible=1;marginBottom=0;whiteSpace=wrap;html=1;shadow=0;" vertex="1" parent="1"><mxGeometry x="310" y="200" width="280" height="180" as="geometry"/></mxCell><mxCell id="6" value="- PNGImageConverter: pngImageConverter" style="text;strokeColor=none;fillColor=none;align=left;verticalAlign=middle;spacingLeft=4;spacingRight=4;overflow=hidden;points=[[0,0.5],[1,0.5]];portConstraint=eastwest;rotatable=0;whiteSpace=wrap;html=1;strokeWidth=1;perimeterSpacing=0;" vertex="1" parent="3"><mxGeometry y="30" width="280" height="30" as="geometry"/></mxCell><mxCell id="16" value="" style="endArrow=none;html=1;rounded=0;entryX=1.005;entryY=0.002;entryDx=0;entryDy=0;entryPerimeter=0;exitX=0;exitY=-0.021;exitDx=0;exitDy=0;exitPerimeter=0;" edge="1" parent="3" source="11" target="11"><mxGeometry width="50" height="50" relative="1" as="geometry"><mxPoint y="90" as="sourcePoint"/><mxPoint x="50" y="40" as="targetPoint"/></mxGeometry></mxCell><mxCell id="5" value="- JPEGImageConverter: jpegImageConverter" style="text;strokeColor=default;fillColor=none;align=left;verticalAlign=middle;spacingLeft=4;spacingRight=4;overflow=hidden;points=[[0,0.5],[1,0.5]];portConstraint=eastwest;rotatable=0;whiteSpace=wrap;html=1;strokeWidth=0;" vertex="1" parent="3"><mxGeometry y="60" width="280" height="30" as="geometry"/></mxCell><mxCell id="11" value="+ ImgConvertFacade()" style="text;strokeColor=none;fillColor=none;align=left;verticalAlign=middle;spacingLeft=4;spacingRight=4;overflow=hidden;points=[[0,0.5],[1,0.5]];portConstraint=eastwest;rotatable=0;whiteSpace=wrap;html=1;" vertex="1" parent="3"><mxGeometry y="90" width="280" height="30" as="geometry"/></mxCell><mxCell id="10" value="+ convertToJPEG(inputFilename, outputFilename" style="text;strokeColor=none;fillColor=none;align=left;verticalAlign=middle;spacingLeft=4;spacingRight=4;overflow=hidden;points=[[0,0.5],[1,0.5]];portConstraint=eastwest;rotatable=0;whiteSpace=wrap;html=1;" vertex="1" parent="3"><mxGeometry y="120" width="280" height="30" as="geometry"/></mxCell><mxCell id="15" value="+ convertToPNG(inputFilename, outputFilename)" style="text;strokeColor=none;fillColor=none;align=left;verticalAlign=middle;spacingLeft=4;spacingRight=4;overflow=hidden;points=[[0,0.5],[1,0.5]];portConstraint=eastwest;rotatable=0;whiteSpace=wrap;html=1;" vertex="1" parent="3"><mxGeometry y="150" width="280" height="30" as="geometry"/></mxCell><mxCell id="24" value="" style="group" vertex="1" connectable="0" parent="1"><mxGeometry x="160" y="420" width="540" height="120" as="geometry"/></mxCell><mxCell id="23" value="" style="ellipse;shape=cloud;whiteSpace=wrap;html=1;shadow=0;strokeColor=default;strokeWidth=1;fillColor=none;" vertex="1" parent="24"><mxGeometry width="540" height="120" as="geometry"/></mxCell><mxCell id="21" value="&lt;b&gt;JPEGImageConverter&lt;/b&gt;" style="rounded=0;whiteSpace=wrap;html=1;shadow=0;strokeColor=default;strokeWidth=0;" vertex="1" parent="24"><mxGeometry x="120" y="40" width="150" height="30" as="geometry"/></mxCell><mxCell id="22" value="&lt;b&gt;PNGImageConverter&lt;/b&gt;" style="rounded=0;whiteSpace=wrap;html=1;shadow=0;strokeColor=default;strokeWidth=0;" vertex="1" parent="24"><mxGeometry x="310" y="40" width="150" height="30" as="geometry"/></mxCell><mxCell id="25" style="edgeStyle=orthogonalEdgeStyle;rounded=0;orthogonalLoop=1;jettySize=auto;html=1;curved=1;startArrow=open;startFill=0;endArrow=none;endFill=0;dashed=1;" edge="1" parent="1" source="21" target="3"><mxGeometry relative="1" as="geometry"/></mxCell><mxCell id="26" style="edgeStyle=orthogonalEdgeStyle;curved=1;rounded=0;orthogonalLoop=1;jettySize=auto;html=1;startArrow=open;startFill=0;endArrow=none;endFill=0;dashed=1;" edge="1" parent="1" source="22" target="3"><mxGeometry relative="1" as="geometry"/></mxCell></root></mxGraphModel></diagram></mxfile>